<svg xmlns="http://www.w3.org/2000/svg" viewBox="0 0 500 500"><g id="freepik--background-complete--inject-35"><path d="M457.2,61.84c.55-4-5.05-7.23-9.26-7.57-2-.16-4.08.15-6-.51-4.12-1.44-5.77-6.76-9.78-8.45-3-1.27-6.46-.14-9.37,1.32s-5.79,3.31-9,3.52c-2.83.18-5.91-.87-8.38.52-1.85,1-2.81,3.15-4.51,4.4a10.75,10.75,0,0,1-5.9,1.6,16.81,16.81,0,0,0-6.08,1c-1.88.86-3.43,2.84-3,4.87Z" style="fill:#f5f5f5"></path><path d="M454.78,182.79c.54-4-5-7.23-9.26-7.57-2-.16-4.09.15-6-.51-4.11-1.44-5.76-6.76-9.77-8.45-3-1.27-6.46-.14-9.38,1.32s-5.78,3.31-9,3.52c-2.83.18-5.9-.87-8.37.52-1.85,1-2.81,3.15-4.51,4.41a10.83,10.83,0,0,1-5.9,1.59,16.81,16.81,0,0,0-6.08,1c-1.88.86-3.43,2.84-3,4.87Z" style="fill:#f5f5f5"></path><path d="M153.41,174.33c.54-4-5-7.23-9.26-7.57-2-.16-4.09.15-6-.51-4.12-1.44-5.76-6.76-9.78-8.45-3-1.27-6.46-.14-9.37,1.33s-5.79,3.31-9,3.51c-2.83.18-5.9-.86-8.38.52-1.84,1-2.81,3.15-4.51,4.41s-3.83,1.48-5.89,1.6a16.55,16.55,0,0,0-6.08,1c-1.88.86-3.44,2.85-3,4.88Z" style="fill:#f5f5f5"></path><path d="M404.32,116.82c.8-5.8-7.38-10.57-13.54-11.06-2.93-.24-6,.21-8.75-.76-6-2.1-8.43-9.87-14.3-12.35-4.39-1.85-9.45-.21-13.71,1.94s-8.46,4.84-13.22,5.14c-4.14.27-8.63-1.27-12.25.75-2.69,1.51-4.11,4.62-6.59,6.45s-5.61,2.17-8.63,2.34-6.14.19-8.89,1.45-5,4.16-4.45,7.13Z" style="fill:#ebebeb"></path><path d="M112,109.57c.7-5-6.42-9.2-11.77-9.63-2.55-.2-5.2.19-7.62-.66-5.24-1.82-7.33-8.59-12.44-10.74-3.82-1.61-8.22-.18-11.92,1.68s-7.36,4.21-11.5,4.48c-3.6.23-7.51-1.1-10.66.65-2.35,1.31-3.57,4-5.74,5.61s-4.87,1.89-7.5,2-5.34.17-7.73,1.26-4.37,3.62-3.87,6.2Z" style="fill:#f5f5f5"></path><polygon points="437.34 375.52 449.18 377.46 449.18 396.54 437.34 398.83 437.34 375.52" style="fill:#f5f5f5"></polygon><rect x="448.75" y="375.17" width="3" height="23.32" rx="0.92" style="fill:#f5f5f5"></rect><path d="M451.15,381.43h2.24a2.75,2.75,0,0,1,2.75,2.75v3.52a2.75,2.75,0,0,1-2.75,2.75h-2.24a0,0,0,0,1,0,0v-9A0,0,0,0,1,451.15,381.43Z" style="fill:#f5f5f5"></path><path d="M448.67,396.62c-.17,0-.3-4.28-.3-9.56s.13-9.56.3-9.56a79.08,79.08,0,0,1,.29,9.56A79.08,79.08,0,0,1,448.67,396.62Z" style="fill:#e0e0e0"></path><path d="M451.6,396.75c-.17,0-.3-4.28-.3-9.56s.13-9.56.3-9.56a79.08,79.08,0,0,1,.29,9.56A79.08,79.08,0,0,1,451.6,396.75Z" style="fill:#e0e0e0"></path><path d="M394.86,450V353.12a21.24,21.24,0,0,1,21.24-21.25h0a21.24,21.24,0,0,1,21.24,21.25V450Z" style="fill:#f5f5f5"></path><rect x="388.16" y="355.43" width="56.29" height="11.74" rx="3.58" style="fill:#f5f5f5"></rect><path d="M409.54,333.41l0-.84a6.08,6.08,0,0,1,5.72-6.43l1.65-.09a6.1,6.1,0,0,1,6.34,5.83l.07,1.45Z" style="fill:#f5f5f5"></path><path d="M415.6,323.69h1.57a1.23,1.23,0,0,1,1.23,1.23v2.17a0,0,0,0,1,0,0h-4a0,0,0,0,1,0,0v-2.17A1.23,1.23,0,0,1,415.6,323.69Z" style="fill:#f5f5f5"></path><path d="M437.34,355.24c0,.17-9.49.3-21.2.3s-21.2-.13-21.2-.3,9.49-.29,21.2-.29S437.34,355.08,437.34,355.24Z" style="fill:#e0e0e0"></path><path d="M410.13,334.19c0,.09-1.22.6-3.13,1.63a21.58,21.58,0,0,0-6.52,5.26,18.88,18.88,0,0,0-3.49,7.57c-.45,2.12-.35,3.48-.46,3.49a2.93,2.93,0,0,1-.13-1,12.76,12.76,0,0,1,.19-2.6,17.45,17.45,0,0,1,3.43-7.87,19.74,19.74,0,0,1,6.79-5.26c1-.47,1.82-.8,2.4-1A3.24,3.24,0,0,1,410.13,334.19Z" style="fill:#fafafa"></path><path d="M423.28,333c-.06.21-3.07-1-6.94-1.06s-6.88,1.22-6.94,1a5.88,5.88,0,0,1,1.92-.84,16.18,16.18,0,0,1,5-.76,17.46,17.46,0,0,1,5,.82A6,6,0,0,1,423.28,333Z" style="fill:#e0e0e0"></path><path d="M418.82,326.42c-.06.16-1-.13-2.27-.15a15,15,0,0,1-2.29,0c-.06-.14.94-.67,2.3-.63S418.9,326.29,418.82,326.42Z" style="fill:#e0e0e0"></path><circle cx="416.48" cy="389.72" r="14.68" transform="translate(-153.59 408.64) rotate(-45)" style="fill:#e0e0e0"></circle><circle cx="416.48" cy="387.18" r="14.68" transform="translate(-9.96 763.36) rotate(-84.33)" style="fill:#f5f5f5"></circle><path d="M431.16,387.18a28.31,28.31,0,0,0-.57-3.56,14.7,14.7,0,0,0-5.35-7.95,14.43,14.43,0,0,0-13.66-2,14.38,14.38,0,0,0-6.68,5,14.34,14.34,0,0,0,0,17,13.79,13.79,0,0,0,3,3.06,13.46,13.46,0,0,0,3.65,2,14.43,14.43,0,0,0,13.66-2,14.7,14.7,0,0,0,5.35-7.95,28.66,28.66,0,0,0,.57-3.55,6,6,0,0,1,0,.93,6.23,6.23,0,0,1-.09,1.14,9.28,9.28,0,0,1-.27,1.54,14.76,14.76,0,0,1-11.57,11,14.91,14.91,0,0,1-7.85-.61,15,15,0,0,1-7-5.2,14.86,14.86,0,0,1,0-17.69,14,14,0,0,1,3.17-3.17,13.74,13.74,0,0,1,3.79-2,14.91,14.91,0,0,1,7.85-.62,14.76,14.76,0,0,1,11.57,11,9.28,9.28,0,0,1,.27,1.54,6.3,6.3,0,0,1,.09,1.14A6.17,6.17,0,0,1,431.16,387.18Z" style="fill:#e0e0e0"></path><path d="M422.51,384.09a6.77,6.77,0,1,1-9.12-2.94A6.77,6.77,0,0,1,422.51,384.09Z" style="fill:#e0e0e0"></path><path d="M421.11,387.18a4.63,4.63,0,1,1-4.63-4.63A4.62,4.62,0,0,1,421.11,387.18Z" style="fill:#f5f5f5"></path><path d="M421.11,387.18c-.06,0-.06-.42-.26-1.11a4.62,4.62,0,0,0-1.7-2.41,4.37,4.37,0,1,0,0,7,4.65,4.65,0,0,0,1.69-2.41c.2-.69.2-1.11.26-1.1a2.37,2.37,0,0,1,0,1.15,4.58,4.58,0,0,1-1.66,2.69,4.87,4.87,0,0,1-4.6.76,4.88,4.88,0,0,1,0-9.2,4.84,4.84,0,0,1,4.6.75,4.58,4.58,0,0,1,1.66,2.69A2.43,2.43,0,0,1,421.11,387.18Z" style="fill:#e0e0e0"></path><path d="M437.34,367.33c0,.16-9.59.29-21.42.29s-21.41-.13-21.41-.29,9.58-.3,21.41-.3S437.34,367.16,437.34,367.33Z" style="fill:#e0e0e0"></path><path d="M394.51,356.76c0,.09-.57.1-1.39.37a5.48,5.48,0,0,0-2.67,1.89,5.41,5.41,0,0,0-1,3.11,13.71,13.71,0,0,1,.05,1.44c-.06,0-.37-.48-.47-1.42a5,5,0,0,1,4-5.42C393.94,356.54,394.51,356.69,394.51,356.76Z" style="fill:#fafafa"></path><path d="M409.69,376.07c.05.09-1,.59-2.3,1.8a12.56,12.56,0,0,0-3.74,12.67c.45,1.73,1,2.71.94,2.76a2.19,2.19,0,0,1-.47-.65,9.92,9.92,0,0,1-.87-2,12.1,12.1,0,0,1,3.87-13.1,10.44,10.44,0,0,1,1.82-1.2C409.4,376.12,409.67,376,409.69,376.07Z" style="fill:#fafafa"></path><path d="M437.34,407.28c-.16,0-.3-9-.3-20.1s.14-20.11.3-20.11.29,9,.29,20.11S437.5,407.28,437.34,407.28Z" style="fill:#e0e0e0"></path><path d="M381.07,461.85v-4.69a3.52,3.52,0,0,1,3.52-3.52h0v-1.51a6.71,6.71,0,0,1,6.71-6.71h47.61c3.7,0,6.65,4.19,6.65,7.89h1.69c1.95,0,3.53.4,3.53,2.34v6.2Z" style="fill:#e0e0e0"></path><path d="M447.25,453.31c0,.17-14.06.3-31.41.3s-31.42-.13-31.42-.3,14.06-.29,31.42-.29S447.25,453.15,447.25,453.31Z" style="fill:#f5f5f5"></path><polygon points="394.94 398.31 383.11 396.37 383.11 377.29 394.94 375 394.94 398.31" style="fill:#f5f5f5"></polygon><rect x="380.53" y="375.34" width="3" height="23.32" rx="0.92" transform="translate(764.05 774) rotate(180)" style="fill:#f5f5f5"></rect><path d="M376.15,383.39h2.24a2.75,2.75,0,0,1,2.75,2.75v3.52a2.75,2.75,0,0,1-2.75,2.75h-2.24a0,0,0,0,1,0,0v-9A0,0,0,0,1,376.15,383.39Z" transform="translate(757.28 775.79) rotate(180)" style="fill:#f5f5f5"></path><path d="M383.61,377.21c.17,0,.3,4.28.3,9.56s-.13,9.56-.3,9.56a79.08,79.08,0,0,1-.29-9.56A79.08,79.08,0,0,1,383.61,377.21Z" style="fill:#e0e0e0"></path><path d="M380.69,377.08a79.08,79.08,0,0,1,.29,9.56,79.08,79.08,0,0,1-.29,9.56c-.17,0-.3-4.28-.3-9.56S380.52,377.08,380.69,377.08Z" style="fill:#e0e0e0"></path><path d="M395,419.13c-.17,0-.3-11.37-.3-25.4s.13-25.41.3-25.41.29,11.37.29,25.41S395.11,419.13,395,419.13Z" style="fill:#e0e0e0"></path><polygon points="273.33 376.52 253.65 462 261.97 461.99 281.7 377.33 273.33 376.52" style="fill:#e0e0e0"></polygon><polygon points="309.25 376.52 329 462 336.91 462 317.8 376.52 309.25 376.52" style="fill:#e0e0e0"></polygon><polygon points="260.04 312.32 271.25 371.17 283.99 371.17 272.02 312.32 260.04 312.32" style="fill:#e0e0e0"></polygon><polygon points="64.8 376.52 48.74 462 56.92 462 73.69 376.52 64.8 376.52" style="fill:#e0e0e0"></polygon><polygon points="98.57 376.52 116.93 461.54 125 461.54 107.28 376.52 98.57 376.52" style="fill:#e0e0e0"></polygon><polygon points="51.51 312.32 62.72 371.17 75.46 371.17 63.49 312.32 51.51 312.32" style="fill:#e0e0e0"></polygon><polygon points="26.29 306.97 28.58 317.67 284.37 317.67 281.39 306.97 26.29 306.97" style="fill:#ebebeb"></polygon><polygon points="31.18 327.75 33.88 338.45 287.94 338.45 285.63 327.75 31.18 327.75" style="fill:#ebebeb"></polygon><polygon points="36.23 349.26 38.74 359.96 292.01 359.96 289.62 349.26 36.23 349.26" style="fill:#ebebeb"></polygon><rect x="55.59" y="371.17" width="273.11" height="10.7" style="fill:#ebebeb"></rect></g><g id="freepik--Floor--inject-35"><path d="M482.8,462.09c0,.15-103.34.26-230.79.26s-230.81-.11-230.81-.26,103.32-.26,230.81-.26S482.8,462,482.8,462.09Z" style="fill:#263238"></path></g><g id="freepik--Plants--inject-35"><path d="M462.79,431.21c.06.09-1.67,1.16-4,3.38a25.81,25.81,0,0,0-1.87,1.89c-.66.68-1.28,1.49-2,2.33a35.89,35.89,0,0,0-6.15,12.42c-.25,1-.52,2-.66,3s-.29,1.82-.38,2.63c-.32,3.23-.12,5.26-.24,5.26a7.61,7.61,0,0,1-.15-1.41,12.05,12.05,0,0,1-.06-1.67c0-.65,0-1.4.09-2.21a25.52,25.52,0,0,1,.31-2.67c.13-1,.38-2,.63-3a34.24,34.24,0,0,1,6.23-12.6c.7-.83,1.34-1.64,2-2.32a22.19,22.19,0,0,1,1.93-1.87,20.35,20.35,0,0,1,1.71-1.41,12.41,12.41,0,0,1,1.36-1A7.43,7.43,0,0,1,462.79,431.21Z" style="fill:#263238"></path><path d="M453.91,414.73a1.79,1.79,0,0,1-.18.47c-.17.34-.37.77-.62,1.29s-.6,1.23-1,2-.79,1.7-1.2,2.73c-.88,2-1.8,4.51-2.72,7.29s-1.73,5.89-2.42,9.19a92.4,92.4,0,0,0-1.41,9.41c-.26,2.92-.38,5.55-.39,7.76,0,1.11,0,2.11,0,3s0,1.64.08,2.26,0,1,.05,1.43a2.44,2.44,0,0,1,0,.5,1.68,1.68,0,0,1-.09-.49l-.15-1.43c-.07-.62-.14-1.37-.17-2.26s-.11-1.88-.1-3c0-2.23,0-4.88.27-7.81a87.67,87.67,0,0,1,1.38-9.47,84.21,84.21,0,0,1,2.48-9.24,77.78,77.78,0,0,1,2.83-7.28c.43-1,.9-1.92,1.28-2.72s.74-1.47,1-2l.71-1.24A1.74,1.74,0,0,1,453.91,414.73Z" style="fill:#263238"></path><path d="M52.58,436.71a4.36,4.36,0,0,1,.74.79,27.32,27.32,0,0,1,1.75,2.37,37.2,37.2,0,0,1,6.18,18.23,25.73,25.73,0,0,1,0,2.95,4.64,4.64,0,0,1-.1,1.07c-.09,0-.07-1.53-.31-4a42.74,42.74,0,0,0-2-9.38,42.47,42.47,0,0,0-4.1-8.68C53.46,438,52.51,436.77,52.58,436.71Z" style="fill:#263238"></path><path d="M55.13,421a9.91,9.91,0,0,1,.95,1.41c.59.93,1.38,2.31,2.29,4a80.5,80.5,0,0,1,5.74,14.19,80.4,80.4,0,0,1,2.91,15c.18,1.95.27,3.54.28,4.63a11.73,11.73,0,0,1,0,1.7,9.81,9.81,0,0,1-.18-1.69c-.07-1.09-.22-2.66-.45-4.6a90.2,90.2,0,0,0-3-14.92A90.21,90.21,0,0,0,58,426.65c-.87-1.75-1.6-3.15-2.14-4.1A11.35,11.35,0,0,1,55.13,421Z" style="fill:#263238"></path><path d="M79.76,444.55A25.58,25.58,0,0,1,78.19,447,48.11,48.11,0,0,0,74.84,453a46.58,46.58,0,0,0-2.4,6.5,26.66,26.66,0,0,1-.82,2.77,11.79,11.79,0,0,1,.46-2.87,36.75,36.75,0,0,1,2.29-6.62,35.7,35.7,0,0,1,3.52-6.05A11.94,11.94,0,0,1,79.76,444.55Z" style="fill:#263238"></path><path d="M392.29,417.92a8.35,8.35,0,0,1,4.33,4.91,14.8,14.8,0,0,1,.58,6.65c-.49,4.32-2.94,8.67-5.59,12.12-3.63-3.17-4.47-8.7-4.72-11.54-.39-4.48,1.63-12.81,5.4-12.14" style="fill:#FF725E"></path><path d="M395.84,448.73a7.14,7.14,0,0,1,2.31-6.79,9.5,9.5,0,0,1,7-2.18,4,4,0,0,1,3.06,1.38,3,3,0,0,1,.05,3.09,6.21,6.21,0,0,1-2.29,2.26c-3.15,2-6.56,3.31-10.12,2.24" style="fill:#FF725E"></path><path d="M391.18,462a5.5,5.5,0,0,1,.13-.88c.11-.63.26-1.43.44-2.4a25,25,0,0,1,2.47-7.66,15.4,15.4,0,0,1,5.5-5.84,10.26,10.26,0,0,1,2.24-1,5.3,5.3,0,0,1,.64-.16c.15,0,.23,0,.23,0a16.43,16.43,0,0,0-3,1.37,15.79,15.79,0,0,0-5.33,5.81,26.48,26.48,0,0,0-2.53,7.55c-.23,1-.4,1.81-.54,2.37A4.66,4.66,0,0,1,391.18,462Z" style="fill:#263238"></path><path d="M391.31,424.4s0,.13.05.39,0,.65.07,1.11c.05,1,.1,2.36.16,4.09.11,3.46.2,8.24.18,13.52s-.16,10.07-.3,13.53c-.07,1.72-.14,3.12-.2,4.09,0,.45,0,.82-.07,1.11a1.83,1.83,0,0,1-.05.39,1.73,1.73,0,0,1,0-.39c0-.29,0-.66,0-1.12,0-1,.06-2.39.1-4.09.08-3.46.18-8.24.2-13.52s0-10.05-.08-13.51c0-1.7-.05-3.09-.07-4.1v-1.11A2.29,2.29,0,0,1,391.31,424.4Z" style="fill:#263238"></path><path d="M389.55,451.36a16.69,16.69,0,0,0-9.12-12.23c-1.21-.58-2.8-1-3.8-.06s-.77,2.53-.28,3.78a14.25,14.25,0,0,0,13.11,8.86" style="fill:#FF725E"></path><path d="M381,443.22a3.82,3.82,0,0,1,.77.34,7.65,7.65,0,0,1,.88.46c.32.21.72.41,1.11.7s.83.58,1.27.95.89.78,1.35,1.23a18.83,18.83,0,0,1,2.56,3.3,18,18,0,0,1,1.69,3.82,14.76,14.76,0,0,1,.43,1.78,14.37,14.37,0,0,1,.22,1.57,12.72,12.72,0,0,1,.06,1.31,7.44,7.44,0,0,1,0,1,4.88,4.88,0,0,1-.09.84c-.07,0,.05-1.2-.16-3.11a14.17,14.17,0,0,0-.25-1.55c-.1-.56-.28-1.13-.45-1.74a17.85,17.85,0,0,0-4.19-7c-.45-.45-.87-.87-1.31-1.23s-.85-.68-1.23-1C382.09,443.78,381,443.28,381,443.22Z" style="fill:#263238"></path></g><g id="freepik--Screen--inject-35"><path d="M235.64,48.91H216.71a4.7,4.7,0,0,0-4.59,4.8v3.43a4.7,4.7,0,0,1-4.59,4.8l-36.9,0A4.71,4.71,0,0,1,166,57.1V53.67a4.7,4.7,0,0,0-4.6-4.8H138.21A14.89,14.89,0,0,0,123.3,63.73l0,238.68a14.89,14.89,0,0,0,14.88,14.88l97.44.06a14.89,14.89,0,0,0,14.9-14.88l.05-238.67A14.9,14.9,0,0,0,235.64,48.91Z" style="fill:#fff"></path><path d="M235.63,48.72H216.7a4.7,4.7,0,0,0-4.6,4.8v3.43a4.7,4.7,0,0,1-4.59,4.81l-36.9,0a4.7,4.7,0,0,1-4.6-4.8V53.48a4.72,4.72,0,0,0-4.6-4.81H138.19a14.9,14.9,0,0,0-14.9,14.89l0,118.31H250.49l0-118.25A14.88,14.88,0,0,0,235.63,48.72Z" style="fill:#FF725E"></path><path d="M187,145.86a26.6,26.6,0,1,1,10.37-2.1A26.44,26.44,0,0,1,187,145.86Zm0-49a22.4,22.4,0,1,0,15.83,6.56A22.24,22.24,0,0,0,187,96.82Z" style="fill:#e0e0e0"></path><circle cx="192.15" cy="110.75" r="2.45" style="fill:#fff"></circle><path d="M180.06,116l2.64-3.2a2.31,2.31,0,0,1,2.66-.68l5,2.06a1.48,1.48,0,0,1,.65,2.24l-3.48,4.81,4,.54a2,2,0,0,1,1.4,3L191,128a1.13,1.13,0,0,1-1,.54h0a1.14,1.14,0,0,1-1-1.71l1.66-2.89-7.09-.89a1.36,1.36,0,0,1-.89-2.19l4.51-5.61-2.71-.94-2.58,3.19a1.2,1.2,0,0,1-1.58.26h0A1.2,1.2,0,0,1,180.06,116Z" style="fill:#fff"></path><path d="M182,122.68l-1.12,2.67-3.48,2.34a1.15,1.15,0,0,0-.36,1.49h0a1.14,1.14,0,0,0,1.62.4l4.31-2.83,1.23-3A2.07,2.07,0,0,1,182,122.68Z" style="fill:#fff"></path><path d="M191.82,114.73l2.13,1.33,2-2.45a1.17,1.17,0,0,1,1.62-.18h0a1.17,1.17,0,0,1,.17,1.68l-2.21,2.59a2.12,2.12,0,0,1-2.65.48l-1.7-1A2.8,2.8,0,0,0,191.82,114.73Z" style="fill:#fff"></path><path d="M187,145.86a26.65,26.65,0,1,1,26.64-26.64,2.13,2.13,0,0,1-4.25,0A22.39,22.39,0,1,0,187,141.61a2.13,2.13,0,0,1,0,4.25Z" style="fill:#fff"></path><path d="M174.42,162.53c0,2.21-1.71,3.64-4,3.64-3.18,0-4.85-2.28-4.85-6.06,0-4.09,2.17-6.19,5.36-6.19a5.33,5.33,0,0,1,2.75.62l-.36.71a4.48,4.48,0,0,0-2.39-.55c-2.71,0-4.48,1.77-4.48,5.28a9.17,9.17,0,0,0,.1,1.45,3.79,3.79,0,0,1,3.85-2.49C172.8,158.94,174.42,160.36,174.42,162.53Zm-.88,0c0-1.73-1.25-2.85-3.28-2.85s-3.35,1.26-3.35,2.88c0,1.42,1.19,2.83,3.45,2.83A2.87,2.87,0,0,0,173.54,162.55Z" style="fill:#fff"></path><path d="M175.94,160.05c0-3.78,1.95-6.13,4.73-6.13s4.72,2.35,4.72,6.13-1.95,6.12-4.72,6.12S175.94,163.82,175.94,160.05Zm8.57,0c0-3.37-1.57-5.32-3.84-5.32s-3.85,2-3.85,5.32,1.57,5.31,3.85,5.31S184.51,163.41,184.51,160.05Z" style="fill:#fff"></path><path d="M195.27,162.6c0,2-1.4,3.57-4.23,3.57a5.8,5.8,0,0,1-4.25-1.62l.45-.67a5.13,5.13,0,0,0,3.78,1.48c2.23,0,3.37-1.12,3.37-2.73s-1.06-2.77-4.34-2.77H187.6l.64-5.86h6.41v.8H189l-.46,4.26h1.72C193.92,159.06,195.27,160.46,195.27,162.6Z" style="fill:#fff"></path><path d="M196.92,160.05c0-3.78,2-6.13,4.73-6.13s4.73,2.35,4.73,6.13-1.95,6.12-4.73,6.12S196.92,163.82,196.92,160.05Zm8.58,0c0-3.37-1.57-5.32-3.85-5.32s-3.85,2-3.85,5.32,1.58,5.31,3.85,5.31S205.5,163.41,205.5,160.05Z" style="fill:#fff"></path><path d="M211.28,164l.12-.19a1.72,1.72,0,0,0,1.2.45c.73,0,1.05-.31,1.05-.71,0-1.09-2.27-.43-2.27-1.77,0-.51.4-1,1.29-1a2,2,0,0,1,1.09.33l-.09.21a1.88,1.88,0,0,0-1-.3c-.71,0-1,.32-1,.72,0,1.09,2.26.45,2.26,1.77,0,.51-.41,1-1.3,1A1.85,1.85,0,0,1,211.28,164Z" style="fill:#fff"></path><path d="M214.43,163.15a1.33,1.33,0,0,1,1.37-1.38,1.21,1.21,0,0,1,1,.5l-.19.14a1,1,0,0,0-.84-.4,1.14,1.14,0,0,0,0,2.28,1,1,0,0,0,.84-.41l.19.14a1.21,1.21,0,0,1-1,.5A1.32,1.32,0,0,1,214.43,163.15Z" style="fill:#fff"></path><path d="M220,162.92v1.58h-.26v-1.56a.82.82,0,0,0-.88-.93,1,1,0,0,0-1,1.05v1.44h-.26v-3.85h.26v1.71a1.11,1.11,0,0,1,1.06-.59A1,1,0,0,1,220,162.92Z" style="fill:#fff"></path><path d="M220.8,164.3a.21.21,0,0,1,.21-.22.22.22,0,0,1,0,.44A.21.21,0,0,1,220.8,164.3Z" style="fill:#fff"></path><rect x="134.49" y="188.59" width="49.17" height="61.91" rx="6.36" style="fill:#FF725E"></rect><path d="M162.71,207.18a7.48,7.48,0,0,1-6.61-11,7.48,7.48,0,1,0,10.13,10.12A7.47,7.47,0,0,1,162.71,207.18Z" style="fill:#fff"></path><path d="M150.07,216.69v2.45h-.38l-1.35-1.66v1.66h-.45v-2.45h.38l1.34,1.66v-1.66Z" style="fill:#fff"></path><path d="M150.61,216.7a.26.26,0,0,1,.28-.26.26.26,0,0,1,.28.25.28.28,0,0,1-.56,0Zm.06.57h.44v1.87h-.44Z" style="fill:#fff"></path><path d="M153.53,217.27v1.58a.88.88,0,0,1-1,1,1.45,1.45,0,0,1-.91-.27l.2-.33a1.07,1.07,0,0,0,.68.23c.42,0,.6-.19.6-.57v-.1a.84.84,0,0,1-.63.25.9.9,0,1,1,0-1.8.81.81,0,0,1,.65.27v-.25Zm-.43.88a.52.52,0,0,0-.56-.53.53.53,0,0,0-.57.53.53.53,0,0,0,.57.53A.52.52,0,0,0,153.1,218.15Z" style="fill:#fff"></path><path d="M155.94,218.07v1.07h-.44v-1c0-.33-.16-.49-.44-.49a.5.5,0,0,0-.52.56v.95h-.44v-2.6h.44v1a.8.8,0,0,1,.62-.24A.73.73,0,0,1,155.94,218.07Z" style="fill:#fff"></path><path d="M157.61,219a.64.64,0,0,1-.42.13.57.57,0,0,1-.64-.63v-.9h-.31v-.35h.31v-.42H157v.42h.5v.35H157v.89c0,.18.09.28.26.28a.35.35,0,0,0,.24-.08Z" style="fill:#fff"></path><path d="M158.77,218.88l.16-.36a1.3,1.3,0,0,0,.8.27c.38,0,.54-.13.54-.32,0-.52-1.45-.18-1.45-1.08,0-.4.32-.74,1-.74a1.53,1.53,0,0,1,.81.22l-.14.35a1.46,1.46,0,0,0-.68-.19c-.37,0-.53.15-.53.33,0,.52,1.45.19,1.45,1.08,0,.4-.32.73-1,.73A1.59,1.59,0,0,1,158.77,218.88Z" style="fill:#fff"></path><path d="M161.13,216.54h.43v2.6h-.43Z" style="fill:#fff"></path><path d="M163.88,218.34h-1.46a.56.56,0,0,0,.6.45.69.69,0,0,0,.51-.2l.23.27a1,1,0,0,1-1.78-.66.93.93,0,0,1,1-.95.91.91,0,0,1,.95,1S163.88,218.3,163.88,218.34Zm-1.47-.29h1.06a.5.5,0,0,0-.53-.45A.52.52,0,0,0,162.41,218.05Z" style="fill:#fff"></path><path d="M166.28,218.2a.91.91,0,0,1-.94,1,.77.77,0,0,1-.6-.25v.9h-.44v-2.54h.42v.24a.79.79,0,0,1,.62-.26A.91.91,0,0,1,166.28,218.2Zm-.44,0a.56.56,0,1,0-.55.59A.54.54,0,0,0,165.84,218.2Z" style="fill:#fff"></path><path d="M168.68,218.2a.92.92,0,0,1-1,1,.77.77,0,0,1-.6-.25v.9h-.43v-2.54h.41v.24a.79.79,0,0,1,.62-.26A.91.91,0,0,1,168.68,218.2Zm-.45,0a.54.54,0,0,0-.55-.58.59.59,0,1,0,.55.58Z" style="fill:#fff"></path><path d="M157.47,231.26c0,1.42-1.18,2.3-3.1,2.3s-3.09-.88-3.09-2.3a2.05,2.05,0,0,1,1.74-2,1.87,1.87,0,0,1-1.44-1.85c0-1.3,1.09-2.11,2.79-2.11s2.81.81,2.81,2.11a1.88,1.88,0,0,1-1.47,1.85A2.06,2.06,0,0,1,157.47,231.26Zm-.59,0c0-1.09-.94-1.77-2.51-1.77s-2.49.68-2.49,1.77.91,1.79,2.49,1.79S156.88,232.36,156.88,231.26ZM154.37,229c1.39,0,2.21-.61,2.21-1.58s-.86-1.63-2.21-1.63-2.2.62-2.2,1.62S153,229,154.37,229Z" style="fill:#fff"></path><path d="M164.75,229.94v3.56h-.58V230a1.84,1.84,0,0,0-2-2.1,2.18,2.18,0,0,0-2.32,2.37v3.24h-.58v-8.66h.58v3.84a2.52,2.52,0,0,1,2.4-1.32A2.31,2.31,0,0,1,164.75,229.94Z" style="fill:#fff"></path><path d="M152.51,239.16c0-1.13.58-1.83,1.41-1.83s1.42.7,1.42,1.83-.58,1.83-1.42,1.83S152.51,240.29,152.51,239.16Zm2.56,0c0-1-.46-1.59-1.15-1.59s-1.15.58-1.15,1.59.47,1.59,1.15,1.59S155.07,240.16,155.07,239.16Z" style="fill:#fff"></path><path d="M158.29,239.92c0,.6-.42,1.07-1.26,1.07a1.72,1.72,0,0,1-1.27-.49l.13-.2a1.51,1.51,0,0,0,1.13.45c.67,0,1-.34,1-.82s-.32-.83-1.3-.83H156l.19-1.75h1.92v.24h-1.7l-.14,1.27h.52C157.89,238.86,158.29,239.28,158.29,239.92Z" style="fill:#fff"></path><path d="M163.48,239.39V241h-.26v-1.55c0-.61-.31-.93-.84-.93a1,1,0,0,0-1,1.05V241h-.25v-1.55c0-.61-.32-.93-.84-.93a1,1,0,0,0-1,1.05V241h-.26v-2.69h.25v.58a1.07,1.07,0,0,1,1-.6,1,1,0,0,1,1,.65,1.12,1.12,0,0,1,1.08-.65A1,1,0,0,1,163.48,239.39Z" style="fill:#fff"></path><path d="M230.82,250.5a13.6,13.6,0,0,0,2.07-.32,8.41,8.41,0,0,0,6.22-7.41c.06-1.57,0-3.32,0-5.19,0-3.73,0-8,0-12.67s0-9.85,0-15.37c0-2.76,0-5.62,0-8.56,0-1.46,0-3,0-4.46a8.28,8.28,0,0,0-1.45-4.17,8.65,8.65,0,0,0-1.54-1.66,8.76,8.76,0,0,0-2-1.19,8.15,8.15,0,0,0-2.24-.6,23.46,23.46,0,0,0-2.39-.06H198.55a8.22,8.22,0,0,0-7.79,5.65,8.82,8.82,0,0,0-.4,2.49c0,.87,0,1.73,0,2.59v5.11c0,6.76,0,13.28,0,19.49s0,12.11,0,17.64a8.29,8.29,0,0,0,6.55,8.31,17.58,17.58,0,0,0,3.55.18l22.25.09,6.05,0,1.57,0c.36,0,.54,0,.54,0s-.18,0-.54,0l-1.57,0-6.05,0-22.25.08a17.93,17.93,0,0,1-3.63-.17,8.87,8.87,0,0,1-3.48-1.59,8.7,8.7,0,0,1-3.42-7.1c0-5.53,0-11.43,0-17.64s0-12.73,0-19.49V197a9.24,9.24,0,0,1,.43-2.65,8.72,8.72,0,0,1,8.28-6h30.87a22.42,22.42,0,0,1,2.45.07,8.82,8.82,0,0,1,2.38.64,9.47,9.47,0,0,1,2.07,1.26,9.1,9.1,0,0,1,1.63,1.77,8.6,8.6,0,0,1,1.52,4.41c.06,1.54,0,3,0,4.49,0,2.94,0,5.8,0,8.56,0,5.52,0,10.67,0,15.37s0,8.94,0,12.67c0,1.87,0,3.6-.06,5.22a8.58,8.58,0,0,1-1.5,4.11,8.46,8.46,0,0,1-4.93,3.37,7.87,7.87,0,0,1-1.56.22Z" style="fill:#FF725E"></path><path d="M221.88,197.09a4.6,4.6,0,0,0-3.93,1.24,10.89,10.89,0,0,0-2.11,2.74,10.63,10.63,0,0,0-2.1-2.74,4.61,4.61,0,0,0-3.94-1.24c-2.18.48-3.39,3.08-3,5.29a10.21,10.21,0,0,0,3.55,5.55,28.7,28.7,0,0,0,5.48,3.93v0l0,0,0,0v0a28.63,28.63,0,0,0,5.47-3.93,10.23,10.23,0,0,0,3.56-5.55C225.28,200.17,224.07,197.57,221.88,197.09Z" style="fill:#FF725E"></path><path d="M207.71,215.44v2.92h-.54v-1.25h-1.51v1.25h-.54v-2.92h.54v1.2h1.51v-1.2Z" style="fill:#263238"></path><path d="M210.3,217.05v1.31h-.49v-.27a.8.8,0,0,1-.7.3c-.51,0-.83-.28-.83-.67s.25-.66.92-.66h.58v0c0-.3-.18-.48-.56-.48a1.08,1.08,0,0,0-.67.22l-.2-.38a1.56,1.56,0,0,1,.94-.27C209.93,216.11,210.3,216.41,210.3,217.05Zm-.52.61v-.26h-.54c-.35,0-.45.14-.45.3s.16.31.43.31A.57.57,0,0,0,209.78,217.66Z" style="fill:#263238"></path><path d="M212.3,218.24a.82.82,0,0,1-.5.15.69.69,0,0,1-.77-.75v-1.07h-.36v-.42H211v-.51h.52v.51h.6v.42h-.6v1.05c0,.22.11.34.31.34a.43.43,0,0,0,.29-.1Z" style="fill:#263238"></path><path d="M214.73,217.41H213a.66.66,0,0,0,.72.53.8.8,0,0,0,.6-.24l.28.32a1.12,1.12,0,0,1-.89.37,1.13,1.13,0,0,1-1.23-1.15,1.1,1.1,0,0,1,1.15-1.13,1.08,1.08,0,0,1,1.12,1.15A.81.81,0,0,1,214.73,217.41Zm-1.75-.35h1.27a.61.61,0,0,0-.63-.54A.62.62,0,0,0,213,217.06Z" style="fill:#263238"></path><path d="M218.34,218.36l-.59-.86H217v.85h-.55v-2.92h1.2c.77,0,1.25.39,1.25,1a.94.94,0,0,1-.62.92l.67,1Zm-.73-2.46H217v1.16h.63c.47,0,.72-.22.72-.58S218.08,215.9,217.61,215.9Z" style="fill:#263238"></path><path d="M221.27,217.05v1.31h-.5v-.27a.78.78,0,0,1-.7.3c-.5,0-.82-.28-.82-.67s.25-.66.92-.66h.58v0c0-.3-.19-.48-.56-.48a1.06,1.06,0,0,0-.67.22l-.21-.38a1.6,1.6,0,0,1,.94-.27C220.9,216.11,221.27,216.41,221.27,217.05Zm-.52.61v-.26h-.54c-.36,0-.45.14-.45.3s.16.31.42.31A.58.58,0,0,0,220.75,217.66Z" style="fill:#263238"></path><path d="M223.26,218.24a.8.8,0,0,1-.5.15.68.68,0,0,1-.76-.75v-1.07h-.37v-.42H222v-.51h.52v.51h.59v.42h-.59v1.05c0,.22.11.34.31.34a.43.43,0,0,0,.29-.1Z" style="fill:#263238"></path><path d="M225.7,217.41H224a.68.68,0,0,0,.72.53.82.82,0,0,0,.61-.24l.28.32a1.12,1.12,0,0,1-.9.37,1.14,1.14,0,0,1-1.23-1.15,1.1,1.1,0,0,1,1.15-1.13,1.09,1.09,0,0,1,1.13,1.15S225.7,217.36,225.7,217.41Zm-1.75-.35h1.26a.61.61,0,0,0-.63-.54A.62.62,0,0,0,224,217.06Z" style="fill:#263238"></path><path d="M213.15,240.17a1.27,1.27,0,0,1-1.3,1.33,1.16,1.16,0,0,1-1.07-.63v.61h-.24v-3.72h.25v1.7a1.17,1.17,0,0,1,1.06-.62A1.27,1.27,0,0,1,213.15,240.17Zm-.25,0a1.06,1.06,0,1,0-1.06,1.11A1,1,0,0,0,212.9,240.17Z" style="fill:#263238"></path><path d="M216.54,240.17a1.27,1.27,0,0,1-1.3,1.33,1.16,1.16,0,0,1-1.06-.61v1.57h-.25v-3.6h.24v.62a1.17,1.17,0,0,1,1.07-.64A1.27,1.27,0,0,1,216.54,240.17Zm-.25,0a1.06,1.06,0,1,0-1.06,1.11A1,1,0,0,0,216.29,240.17Z" style="fill:#263238"></path><path d="M221.62,240v1.53h-.25V240c0-.59-.3-.9-.81-.9a.92.92,0,0,0-1,1v1.39h-.25V240c0-.59-.31-.9-.82-.9a.92.92,0,0,0-1,1v1.39h-.25v-2.62h.24v.57a1,1,0,0,1,1-.59.93.93,0,0,1,1,.64,1.1,1.1,0,0,1,1.06-.64A1,1,0,0,1,221.62,240Z" style="fill:#263238"></path><path d="M215.44,231.47c0,2.05-1.7,3.31-4.47,3.31s-4.43-1.26-4.43-3.31a2.94,2.94,0,0,1,2.5-2.92,2.69,2.69,0,0,1-2.08-2.66c0-1.88,1.58-3,4-3s4.05,1.16,4.05,3a2.71,2.71,0,0,1-2.12,2.66A3,3,0,0,1,215.44,231.47Zm-.86,0c0-1.56-1.34-2.55-3.61-2.55s-3.58,1-3.58,2.55S208.7,234,211,234,214.58,233.05,214.58,231.47ZM211,228.21c2,0,3.19-.89,3.19-2.28s-1.24-2.34-3.19-2.34-3.16.89-3.16,2.32S209,228.21,211,228.21Z" style="fill:#263238"></path><path d="M225,231.3c0,2-1.36,3.48-4.11,3.48a5.66,5.66,0,0,1-4.14-1.58l.44-.65a5,5,0,0,0,3.68,1.44c2.17,0,3.27-1.09,3.27-2.65s-1-2.71-4.21-2.71h-2.39l.62-5.69h6.24v.77h-5.51l-.46,4.15h1.68C223.67,227.86,225,229.22,225,231.3Z" style="fill:#263238"></path><path d="M133.86,265.15c0,.64-.34,1-.83,1a.85.85,0,0,1-.43-.09l.06-.11a.68.68,0,0,0,.37.08c.42,0,.7-.27.7-.82,0-.06,0-.14,0-.23a.6.6,0,0,1-.6.39.56.56,0,0,1-.63-.56.57.57,0,0,1,.63-.56C133.6,264.21,133.86,264.56,133.86,265.15Zm-.21-.39a.49.49,0,0,0-.54-.44.45.45,0,0,0-.49.45c0,.27.19.44.51.44A.47.47,0,0,0,133.65,264.76Z" style="fill:#e0e0e0"></path><path d="M134.16,265.16c0-.59.3-1,.73-1s.74.36.74,1-.3.95-.74.95S134.16,265.75,134.16,265.16Zm1.33,0c0-.52-.24-.83-.6-.83s-.6.31-.6.83.25.83.6.83S135.49,265.68,135.49,265.16Z" style="fill:#e0e0e0"></path><path d="M135.92,265.16c0-.59.31-1,.74-1s.74.36.74,1-.31.95-.74.95S135.92,265.75,135.92,265.16Zm1.34,0c0-.52-.25-.83-.6-.83s-.6.31-.6.83.25.83.6.83S137.26,265.68,137.26,265.16Z" style="fill:#e0e0e0"></path><path d="M137.69,265.16c0-.59.3-1,.74-1s.73.36.73,1-.3.95-.73.95S137.69,265.75,137.69,265.16Zm1.34,0c0-.52-.25-.83-.6-.83s-.6.31-.6.83.24.83.6.83S139,265.68,139,265.16Z" style="fill:#e0e0e0"></path><path d="M133.92,275.09a.57.57,0,0,1-.62.57c-.5,0-.76-.36-.76-.94s.34-1,.84-1a.79.79,0,0,1,.42.1l-.05.11a.72.72,0,0,0-.37-.09c-.43,0-.7.28-.7.82a2,2,0,0,0,0,.23.6.6,0,0,1,.6-.39A.56.56,0,0,1,133.92,275.09Zm-.14,0c0-.26-.19-.44-.51-.44a.47.47,0,0,0-.52.45.48.48,0,0,0,.54.44A.44.44,0,0,0,133.78,275.09Z" style="fill:#e0e0e0"></path><path d="M134.16,274.7c0-.58.3-.95.73-.95s.74.37.74.95-.3,1-.74,1S134.16,275.29,134.16,274.7Zm1.33,0c0-.52-.24-.82-.6-.82s-.6.3-.6.82.25.83.6.83S135.49,275.23,135.49,274.7Z" style="fill:#e0e0e0"></path><path d="M135.92,274.7c0-.58.31-.95.74-.95s.74.37.74.95-.31,1-.74,1S135.92,275.29,135.92,274.7Zm1.34,0c0-.52-.25-.82-.6-.82s-.6.3-.6.82.25.83.6.83S137.26,275.23,137.26,274.7Z" style="fill:#e0e0e0"></path><path d="M137.69,274.7c0-.58.3-.95.74-.95s.73.37.73.95-.3,1-.73,1S137.69,275.29,137.69,274.7Zm1.34,0c0-.52-.25-.82-.6-.82s-.6.3-.6.82.24.83.6.83S139,275.23,139,274.7Z" style="fill:#e0e0e0"></path><path d="M133.75,285.63c0,.31-.23.54-.66.54a.89.89,0,0,1-.66-.25l.07-.11a.79.79,0,0,0,.59.23c.34,0,.52-.16.52-.41s-.17-.42-.55-.42h-.12v-.1l.56-.71h-1v-.12h1.18v.09l-.57.73C133.54,285.11,133.75,285.32,133.75,285.63Z" style="fill:#e0e0e0"></path><path d="M134,285.22c0-.59.3-1,.74-1s.73.37.73,1-.3.95-.73.95S134,285.8,134,285.22Zm1.33,0c0-.53-.24-.83-.59-.83s-.6.3-.6.83.24.82.6.82S135.37,285.74,135.37,285.22Z" style="fill:#e0e0e0"></path><path d="M135.81,285.22c0-.59.3-1,.73-1s.74.37.74,1-.31.95-.74.95S135.81,285.8,135.81,285.22Zm1.33,0c0-.53-.24-.83-.6-.83s-.6.3-.6.83.25.82.6.82S137.14,285.74,137.14,285.22Z" style="fill:#e0e0e0"></path><path d="M137.57,285.22c0-.59.31-1,.74-1s.74.37.74,1-.31.95-.74.95S137.57,285.8,137.57,285.22Zm1.34,0c0-.53-.25-.83-.6-.83s-.6.3-.6.83.24.82.6.82S138.91,285.74,138.91,285.22Z" style="fill:#e0e0e0"></path><path d="M137.44,294.38c0-.58.3-.95.74-.95s.73.37.73.95-.3,1-.73,1S137.44,295,137.44,294.38Zm1.33,0c0-.52-.24-.82-.59-.82s-.6.3-.6.82.24.83.6.83S138.77,294.91,138.77,294.38Z" style="fill:#e0e0e0"></path><path d="M150.37,303.24v-1.77l-.86,1.49h-.08l-.86-1.48v1.76h-.15v-2.06h.13l.92,1.59.92-1.59h.13v2.06Z" style="fill:#e0e0e0"></path><path d="M178.78,301.18l-.7,2.06h-.15l-.64-1.85-.65,1.85h-.15l-.71-2.06h.16l.63,1.85.65-1.85h.14L178,303l.63-1.85Z" style="fill:#e0e0e0"></path><path d="M191.11,301.31h-.74v-.13H192v.13h-.75v1.93h-.15Z" style="fill:#e0e0e0"></path><path d="M204.67,301.31v.88h1.1v.14h-1.1v.91h-.15v-2.06h1.38v.13Z" style="fill:#e0e0e0"></path><path d="M218.25,303l.07-.11a1,1,0,0,0,.68.26c.41,0,.6-.18.6-.4,0-.62-1.29-.25-1.29-1,0-.29.22-.55.73-.55a1.06,1.06,0,0,1,.62.19l0,.12a1,1,0,0,0-.57-.18c-.4,0-.58.19-.58.42,0,.61,1.29.25,1.29,1,0,.29-.24.54-.74.54A1.05,1.05,0,0,1,218.25,303Z" style="fill:#e0e0e0"></path><path d="M232.16,303l.07-.11a1,1,0,0,0,.68.26c.41,0,.59-.18.59-.4,0-.62-1.28-.25-1.28-1,0-.29.22-.55.73-.55a1.08,1.08,0,0,1,.62.19l-.06.12a1,1,0,0,0-.56-.18c-.4,0-.58.19-.58.42,0,.61,1.28.25,1.28,1,0,.29-.23.54-.74.54A1,1,0,0,1,232.16,303Z" style="fill:#e0e0e0"></path><path d="M163.3,301.31h-.74v-.13h1.63v.13h-.74v1.93h-.15Z" style="fill:#e0e0e0"></path><path d="M233.91,264.26a23.29,23.29,0,0,0-12.37,13.06c-.77,2.05-1.24,4.22-2.16,6.21a8.46,8.46,0,0,1-4.42,4.64c-2.62,1-5.68-.15-7.6-2.18a14.18,14.18,0,0,1-3.3-7.56c-.45-2.76-.47-5.57-.87-8.33a15.35,15.35,0,0,0-2.37-6.76,7.71,7.71,0,0,0-6-3.46c-3.92,0-6.77,3.55-9.08,6.71s-5.44,6.6-9.33,6.17c-5.92-.66-8-9.56-13.94-10.41-3.72-.53-7.05,2.6-8.61,6s-2,7.26-3.5,10.69-4.78,6.61-8.51,6.19v13.06h92.09Z" style="fill:#FF725E"></path><g style="opacity:0.7000000000000001"><path d="M233.91,264.26a23.29,23.29,0,0,0-12.37,13.06c-.77,2.05-1.24,4.22-2.16,6.21a8.46,8.46,0,0,1-4.42,4.64c-2.62,1-5.68-.15-7.6-2.18a14.18,14.18,0,0,1-3.3-7.56c-.45-2.76-.47-5.57-.87-8.33a15.35,15.35,0,0,0-2.37-6.76,7.71,7.71,0,0,0-6-3.46c-3.92,0-6.77,3.55-9.08,6.71s-5.44,6.6-9.33,6.17c-5.92-.66-8-9.56-13.94-10.41-3.72-.53-7.05,2.6-8.61,6s-2,7.26-3.5,10.69-4.78,6.61-8.51,6.19v13.06h92.09Z" style="fill:#fff"></path></g><path d="M233.91,264.26l-.33.18c-.22.12-.57.27-1,.51a23.24,23.24,0,0,0-3.54,2.33,23.88,23.88,0,0,0-4.58,4.86,25,25,0,0,0-3.67,8,20.42,20.42,0,0,1-2,4.84,7.45,7.45,0,0,1-4.38,3.55,7.36,7.36,0,0,1-5.9-1.25,10.62,10.62,0,0,1-3.78-5.2c-1.6-4.2-1.16-9-2.1-13.55a12.11,12.11,0,0,0-3.09-6.28,7.6,7.6,0,0,0-3-1.85,5.89,5.89,0,0,0-3.55,0c-2.36.72-4.14,2.6-5.66,4.47a41.08,41.08,0,0,1-4.66,5.6,10.63,10.63,0,0,1-3,2,6.27,6.27,0,0,1-3.52.48A7.13,7.13,0,0,1,173,271.6a15.41,15.41,0,0,1-2.45-2.31,58.28,58.28,0,0,0-4.24-4.74,6.87,6.87,0,0,0-5.3-2,7.9,7.9,0,0,0-4.71,2.57,12.69,12.69,0,0,0-2.67,4.32c-1.18,3.06-1.69,6-2.65,8.51a12.8,12.8,0,0,1-3.78,5.56,7.51,7.51,0,0,1-3.85,1.77,5.15,5.15,0,0,1-1.11,0l-.38,0a14.44,14.44,0,0,0,1.47-.08,7.52,7.52,0,0,0,3.74-1.81,12.69,12.69,0,0,0,3.63-5.51c.93-2.45,1.41-5.42,2.58-8.55a13,13,0,0,1,2.73-4.46,8.31,8.31,0,0,1,5-2.72,7.31,7.31,0,0,1,5.64,2.09,56.1,56.1,0,0,1,4.3,4.76c1.41,1.6,3.14,3.19,5.35,3.5s4.42-.79,6.11-2.37a41.89,41.89,0,0,0,4.6-5.54c1.54-1.9,3.36-3.86,5.91-4.65a6.4,6.4,0,0,1,3.85,0,8.18,8.18,0,0,1,3.24,2,12.57,12.57,0,0,1,3.23,6.55c.94,4.71.5,9.41,2.05,13.49a10.12,10.12,0,0,0,3.59,5,6.89,6.89,0,0,0,5.53,1.21,7.08,7.08,0,0,0,4.15-3.34,20.06,20.06,0,0,0,2-4.74,31.71,31.71,0,0,1,1.64-4.44,23,23,0,0,1,2.15-3.64,23.76,23.76,0,0,1,4.7-4.85,21.93,21.93,0,0,1,3.61-2.26c.44-.23.79-.36,1-.47A2,2,0,0,1,233.91,264.26Z" style="fill:#FF725E"></path><path d="M238.34,298.31c0,.14-23.81.26-53.17.26s-53.17-.12-53.17-.26,23.8-.26,53.17-.26S238.34,298.17,238.34,298.31Z" style="fill:#263238"></path><path d="M176.47,77.29v-3L175,76.81h-.12l-1.49-2.55v3h-.25V73.74h.22l1.58,2.74,1.59-2.74h.21v3.55Z" style="fill:#fff"></path><path d="M180,74.64l-1.36,3c-.21.48-.48.64-.83.64a.82.82,0,0,1-.61-.24l.13-.19a.64.64,0,0,0,.49.21c.24,0,.42-.12.58-.48l.14-.31-1.19-2.64h.27L178.69,77l1.06-2.37Z" style="fill:#fff"></path><path d="M184.4,77.29l-.84-1.19a1.9,1.9,0,0,1-.35,0h-1v1.16h-.26V73.74h1.27c.9,0,1.43.45,1.43,1.19a1.07,1.07,0,0,1-.83,1.11l.89,1.25Zm-1.19-1.39c.76,0,1.17-.36,1.17-1s-.41-1-1.17-1h-1V75.9Z" style="fill:#fff"></path><path d="M185.22,76a1.32,1.32,0,1,1,1.32,1.35A1.29,1.29,0,0,1,185.22,76Zm2.39,0a1.07,1.07,0,1,0-1.07,1.12A1.05,1.05,0,0,0,187.61,76Z" style="fill:#fff"></path><path d="M191,74.64v2.65h-.25v-.57a1,1,0,0,1-1,.59,1,1,0,0,1-1.1-1.12V74.64h.25v1.53a.81.81,0,0,0,.88.91.93.93,0,0,0,1-1V74.64Z" style="fill:#fff"></path><path d="M193.35,77.12a.83.83,0,0,1-.54.19.66.66,0,0,1-.72-.72V74.86h-.49v-.22h.49v-.58h.25v.58h.85v.22h-.85v1.7a.46.46,0,0,0,.5.53.61.61,0,0,0,.41-.15Z" style="fill:#fff"></path><path d="M194,73.8a.21.21,0,1,1,.41,0,.21.21,0,0,1-.21.21A.2.2,0,0,1,194,73.8Zm.08.84h.25v2.65h-.25Z" style="fill:#fff"></path><path d="M197.75,75.74v1.55h-.26V75.76a.8.8,0,0,0-.85-.91,1,1,0,0,0-1,1v1.41h-.25V74.64h.24v.57a1.1,1.1,0,0,1,1-.59A1,1,0,0,1,197.75,75.74Z" style="fill:#fff"></path><path d="M201,76h-2.28a1.07,1.07,0,0,0,1.12,1.06,1.06,1.06,0,0,0,.85-.37l.15.17a1.37,1.37,0,0,1-2.36-.92,1.26,1.26,0,0,1,1.26-1.34A1.25,1.25,0,0,1,201,76Zm-2.27-.19h2a1,1,0,0,0-2,0Z" style="fill:#fff"></path><path d="M237.31,72.08c0,.06-2.46.14-5.49.16s-5.5,0-5.5-.07,2.46-.14,5.49-.16S237.31,72,237.31,72.08Z" style="fill:#fff"></path><path d="M237.34,74.89c0,.07-2.47.14-5.5.16s-5.5,0-5.5-.07,2.46-.13,5.5-.16S237.34,74.83,237.34,74.89Z" style="fill:#fff"></path><path d="M237.36,77.71c0,.06-2.46.13-5.5.16s-5.5,0-5.5-.07,2.46-.14,5.5-.16S237.36,77.64,237.36,77.71Z" style="fill:#fff"></path><path d="M137.29,80.92l.23,0,.64,0,2.35,0-.07.06c0-.52,0-1.09,0-1.7,0-.32,0-.62,0-1a.9.9,0,0,1,.79-.73c.37,0,.71,0,1.12,0a.92.92,0,0,1,.77.91c0,.79,0,1.62,0,2.48l-.11-.11,3,0-.11.12c0-1.2,0-2.43,0-3.69,0-.32,0-.63,0-.94a.93.93,0,0,0-.41-.7l-1.3-1.28L142.86,73l-.6-.6c-.21-.2-.37-.41-.61-.46a.81.81,0,0,0-.68.13c-.18.15-.37.37-.55.54l-1.07,1.08c-.67.69-1.36,1.32-1.87,1.92a2.21,2.21,0,0,0-.15,1.11v1c0,.64,0,1.2,0,1.68s0,.79,0,1.08a3.26,3.26,0,0,1,0,.39s0-.12,0-.36,0-.63,0-1.06,0-1,0-1.69c0-.34,0-.69,0-1.07,0-.19,0-.38,0-.58a1.15,1.15,0,0,1,.16-.62c.55-.67,1.2-1.26,1.88-2l1.05-1.08c.19-.19.35-.37.57-.57a1,1,0,0,1,.86-.16,1.48,1.48,0,0,1,.71.5l.61.6,1.25,1.23,1.3,1.27a2.94,2.94,0,0,1,.33.36,1,1,0,0,1,.16.5v.94q0,1.91,0,3.69V81H146l-3,0h-.11v-.11c0-.86,0-1.69,0-2.48a.72.72,0,0,0-.6-.72c-.34,0-.75,0-1.08,0a.72.72,0,0,0-.64.57c0,.3,0,.65,0,1V81h-.06l-2.39,0h-.83Z" style="fill:#fff"></path><path d="M235.74,48.72h.51a10.13,10.13,0,0,1,1.51.12,14,14,0,0,1,5.59,1.92,15,15,0,0,1,6.24,7.2A15.47,15.47,0,0,1,250.71,64c0,2.2,0,4.54,0,7,0,19.85,0,48.56.07,84s0,77.73,0,124.64V302a16,16,0,0,1-.57,4.56,15,15,0,0,1-1.91,4.21,16,16,0,0,1-3.11,3.45,15.1,15.1,0,0,1-8.63,3.35c-3.13.1-6.23,0-9.36.05h-19l-38.93,0h-30a15.78,15.78,0,0,1-9.73-2.68,15.35,15.35,0,0,1-5.92-8.19,16.36,16.36,0,0,1-.63-5.05v-5q0-10,0-19.92,0-19.77,0-38.94c0-25.53,0-50.15,0-73.61s0-45.75,0-66.61q0-15.65,0-30.19V63.79c0-.6,0-1.21.08-1.81s.16-1.2.31-1.78a15.34,15.34,0,0,1,3.14-6.33,15.13,15.13,0,0,1,12.18-5.39H161.2a4.8,4.8,0,0,1,2.94.82A5,5,0,0,1,166,51.74a8.05,8.05,0,0,1,.3,2.95c0,1-.05,2,.05,2.87a4.67,4.67,0,0,0,1.1,2.48,4.38,4.38,0,0,0,2.26,1.4,12.8,12.8,0,0,0,2.71.13h5.37l19.65,0h8.65c.69,0,1.39,0,2,0a4.41,4.41,0,0,0,1.81-.64A4.69,4.69,0,0,0,212,58a7.76,7.76,0,0,0,.12-1.8V54.4a11.15,11.15,0,0,1,.08-1.74,5.24,5.24,0,0,1,.57-1.61,4.69,4.69,0,0,1,2.39-2.1,7.4,7.4,0,0,1,3-.32l9.66,0,5.94,0,2,0s-.69,0-2,0l-5.94,0-9.66,0a7.34,7.34,0,0,0-2.9.31,4.55,4.55,0,0,0-2.3,2,4.82,4.82,0,0,0-.53,1.55,8.74,8.74,0,0,0-.07,1.71v1.78a8.25,8.25,0,0,1-.12,1.84A4.89,4.89,0,0,1,210,61.15a4.56,4.56,0,0,1-1.91.68c-.69.06-1.35,0-2.05,0H171a5.63,5.63,0,0,1-1.41-.14,4.64,4.64,0,0,1-2.42-1.5A5,5,0,0,1,166,57.6c-.1-1,0-1.93,0-2.91a7.69,7.69,0,0,0-.29-2.84A4.64,4.64,0,0,0,164,49.6a4.47,4.47,0,0,0-2.77-.76H138.9A14.76,14.76,0,0,0,127,54.12,14.78,14.78,0,0,0,124,60.28c-.57,2.28-.31,4.7-.37,7.12q0,14.52,0,30.19c0,20.86,0,43.15,0,66.61V276.75q0,9.88,0,19.92v5a15.91,15.91,0,0,0,.61,4.91,14.76,14.76,0,0,0,5.72,7.9,15.21,15.21,0,0,0,9.43,2.59h30l38.93,0h19c3.12,0,6.26.05,9.33,0a14.57,14.57,0,0,0,8.34-3.23,15.71,15.71,0,0,0,3-3.34,14.64,14.64,0,0,0,1.84-4.07,15.39,15.39,0,0,0,.56-4.43v-4.51q0-9,0-17.81c0-46.91.06-89.15.08-124.64s.08-64.18.1-84c-.13-4.93.52-9.47-1.07-13a14.93,14.93,0,0,0-6.16-7.17,14.08,14.08,0,0,0-5.54-2,12.49,12.49,0,0,0-1.5-.14Z" style="fill:#263238"></path></g><g id="freepik--Character--inject-35"><path d="M246,334.49c-.51.05-9.06,28.5-9.06,28.5s-29.71,25.64-34.18,35.4-19.94,39.88-19.94,39.88l17.9,9L251.24,387s5.59-2.44,7.63-5.7S284.5,340,284.5,340l-8-17.28Z" style="fill:#b78876"></path><path d="M309.31,336.91s24.09,18.16,26.52,21.66c.44.64,0,2.58,0,2.58s-13.48,8.32-17.2,19.79-19.5,50.47-19.5,50.47,16.63,10.61,17.2,9.46,39.92-57.8,43.36-62.39,8.54-11,9.4-16.75-1.14-16.64-10.32-26.39S337,311.26,337,311.26l-33.27,6.59L302.57,331l6.74,5.87" style="fill:#b78876"></path><path d="M252.18,283.36s2.16,15.82,7.64,22.9,19.84,20.07,26.92,22.12S307.61,340,307.61,340l2.62-2-4.1-11.67,13.46,5.25,23-19.89s-19.18-18.21-24.08-23.82a177.49,177.49,0,0,0-12.79-12.71l-50,5.55-3.93,3.65" style="fill:#263238"></path><path d="M252.43,287.87s.89,15.46,3.09,19.36h0L243,334.76l34.32-3.06s7.31,12.75,7.48,13.09,12.45-11.07,12.45-11.07l-7.86-33.11Z" style="fill:#263238"></path><path d="M307.61,340a6.68,6.68,0,0,1-.68-.37L305,338.5l-7-4.31-4.81-3c-1.74-1.06-3.54-2.28-5.55-3.36-1-.55-2-1.09-3.12-1.59s-2.22-.88-3.4-1.35a51.36,51.36,0,0,1-7-3.41A46.84,46.84,0,0,1,262.63,312a42.29,42.29,0,0,1-6.66-10.2,38.7,38.7,0,0,1-2.66-7.79c-.19-.95-.34-1.69-.4-2.2a4,4,0,0,1-.08-.77,4.62,4.62,0,0,1,.19.76c.09.5.26,1.23.49,2.17a41.08,41.08,0,0,0,2.79,7.67,43,43,0,0,0,6.69,10A47,47,0,0,0,274.45,321a51.44,51.44,0,0,0,6.88,3.38c1.15.46,2.32.86,3.42,1.38s2.14,1.06,3.14,1.62c2,1.11,3.82,2.34,5.55,3.41l4.78,3.05,6.9,4.45,1.86,1.23A3.13,3.13,0,0,1,307.61,340Z" style="fill:#455a64"></path><path d="M321.35,329.46a4.51,4.51,0,0,1-.63-.32l-1.74-1c-1.51-.87-3.67-2.17-6.32-3.82-5.29-3.29-12.48-8-20.16-13.65s-14.37-11-19.11-15.09c-2.37-2-4.26-3.68-5.55-4.86l-1.47-1.36c-.34-.31-.51-.48-.49-.5a4.13,4.13,0,0,1,.56.42l1.54,1.29,5.65,4.73c4.79,4,11.52,9.34,19.18,14.95s14.82,10.39,20.05,13.76l6.22,4,1.69,1.08A3,3,0,0,1,321.35,329.46Z" style="fill:#fff"></path><path d="M324.26,327.21a2.84,2.84,0,0,1-.62-.32l-1.7-1c-1.47-.88-3.58-2.19-6.17-3.85-5.17-3.3-12.21-8.05-19.74-13.62s-14.12-10.93-18.79-14.92c-2.34-2-4.21-3.63-5.47-4.79l-1.46-1.33a3.18,3.18,0,0,1-.49-.5,3,3,0,0,1,.56.42l1.52,1.26,5.58,4.66c4.72,3.91,11.34,9.21,18.86,14.78s14.51,10.35,19.63,13.74l6.08,4,1.65,1.09A4,4,0,0,1,324.26,327.21Z" style="fill:#fff"></path><path d="M344.16,364a21.83,21.83,0,0,0-3.92-2.17,22.27,22.27,0,0,0-4.4-.82,8.51,8.51,0,0,1,8.32,3Z" style="fill:#995037"></path><path d="M252.12,385.8c-.07.12-.79-.2-1.59-.72s-1.4-1-1.32-1.15.79.2,1.6.71S252.2,385.68,252.12,385.8Z" style="fill:#995037"></path><path d="M329.26,229.56l19.74,6.3-5.15,13.43s-22.48-.71-26.27-1.53-3.72-7-3.72-7Z" style="fill:#b78876"></path><path d="M347.05,236.88l6.4-7.16,7.28.09s5.28,2.12,6.32,2.1a2.12,2.12,0,0,1-1.34,1.76s2.58,0,3.15.87-.41,2.6-1.23,3.6a8.48,8.48,0,0,1,.23,2.53,4.35,4.35,0,0,1-.9,2.38l-1.47.79A2,2,0,0,1,366,246a5.83,5.83,0,0,1-2.12,2.19s1.34.55.92,1.66-.79,1.63-1.64,2-8.73,1.41-10.43,1-8.83-3.49-8.83-3.49Z" style="fill:#b78876"></path><path d="M367.72,238.47c0,.08-1.1-.14-2.87-.31-.88-.08-1.93-.15-3.1-.14-.59,0-1.19,0-1.84,0a2.92,2.92,0,0,1-2.06-.5,1.52,1.52,0,0,1-.56-1,1.8,1.8,0,0,1,.28-1.08,2.57,2.57,0,0,1,1.64-1.13,9.81,9.81,0,0,1,1.69-.22l1.46-.11a15.88,15.88,0,0,1,2.89-.1,16.17,16.17,0,0,1-2.86.46c-.87.14-2,.17-3.06.44a2.06,2.06,0,0,0-1.32.92,1.09,1.09,0,0,0,.17,1.47,2.47,2.47,0,0,0,1.71.39c.64,0,1.27,0,1.86,0a23,23,0,0,1,3.15.26A10,10,0,0,1,367.72,238.47Z" style="fill:#995037"></path><path d="M365.54,243.25c0,.07-.83-.1-2.16-.21a21.38,21.38,0,0,1-5.2-.83,11.32,11.32,0,0,1-1.46-.48,1.37,1.37,0,0,1-.63-.59,2.2,2.2,0,0,1-.16-.75,1.56,1.56,0,0,1,.07-.73,1.93,1.93,0,0,1,.3-.59,3,3,0,0,1,.82-.83,2.85,2.85,0,0,1,1.57-.5c.39,0,.6.08.59.11a4,4,0,0,0-1.94.69,2.64,2.64,0,0,0-.68.76,2.07,2.07,0,0,0-.23.5,1.6,1.6,0,0,0,0,.55,2.16,2.16,0,0,0,.14.57.78.78,0,0,0,.4.35,13.22,13.22,0,0,0,1.38.44,28.53,28.53,0,0,0,5.11,1A5.63,5.63,0,0,1,365.54,243.25Z" style="fill:#995037"></path><path d="M364,248a17.86,17.86,0,0,1-3-.72l-3.23-.92a7.6,7.6,0,0,1-1.92-.72,2.13,2.13,0,0,1-.76-.91,1.47,1.47,0,0,1,.07-1.26,2.38,2.38,0,0,1,2-1.1c.72,0,1.37,0,2,.06a24,24,0,0,1,3.36.42,13.65,13.65,0,0,1,2.19.65c.5.2.76.35.74.38s-1.13-.37-3-.66a28.17,28.17,0,0,0-3.31-.32c-.63,0-1.31-.06-1.95,0a1.88,1.88,0,0,0-1.59.84,1.15,1.15,0,0,0,.52,1.49,7,7,0,0,0,1.77.69l3.2,1A17.67,17.67,0,0,1,364,248Z" style="fill:#995037"></path><path d="M361.87,250.88a7.83,7.83,0,0,1-2.63-.14,18.13,18.13,0,0,1-2.8-.68,2.89,2.89,0,0,1-1.53-.95,2,2,0,0,1-.17-2,2,2,0,0,1,1.63-1.12,4.9,4.9,0,0,1,1.75.2,26.36,26.36,0,0,1,2.73.86,9.4,9.4,0,0,1,2.39,1.12,23.62,23.62,0,0,1-2.51-.78c-.77-.23-1.69-.5-2.72-.74a5,5,0,0,0-1.58-.16,1.55,1.55,0,0,0-1.22.85,1.42,1.42,0,0,0,.12,1.45,2.45,2.45,0,0,0,1.27.79,22.78,22.78,0,0,0,2.71.77C360.88,250.72,361.88,250.8,361.87,250.88Z" style="fill:#995037"></path><path d="M365.88,233.67c.05.18-2.23.75-5.07.58-.35,0-.7-.05-1-.1-.16,0-.35-.08-.48-.09l-.17,0a.24.24,0,0,0-.12,0,9.21,9.21,0,0,1-1.32.91,2.81,2.81,0,0,1-1.44.47c0-.08.5-.29,1.25-.79a11.52,11.52,0,0,0,1.26-1,.93.93,0,0,1,.32-.12l.3,0,.47.07c.32.05.66.07,1,.09,1.38.07,2.65,0,3.55,0A8,8,0,0,1,365.88,233.67Z" style="fill:#995037"></path><path d="M355.35,240.19c-.07,0,.12-.38.25-1a22.17,22.17,0,0,0,.32-2.37,5.21,5.21,0,0,0-.31-2.28c-.22-.56-.48-.85-.42-.9s.41.16.75.73a4.37,4.37,0,0,1,.5,2.48,9.51,9.51,0,0,1-.49,2.45C355.72,240,355.4,240.24,355.35,240.19Z" style="fill:#995037"></path><polygon points="344.15 234.32 340.82 249.18 343.86 249.29 348.19 235.6 344.15 234.32" style="fill:#263238"></polygon><rect x="342.21" y="232.84" width="6.45" height="2.02" transform="translate(112.31 -112.08) rotate(21.93)" style="fill:#263238"></rect><path d="M324.71,104.73a5.1,5.1,0,0,1-2.17-8.56,10.39,10.39,0,0,1,4.17-2.09,4.43,4.43,0,0,1,3.11-.21A3.43,3.43,0,0,1,331.47,97c0,1.25-.28,2.5-.14,3.75.39-.39,1.13-.06,1.27.47a1.48,1.48,0,0,1-.58,1.45,11.66,11.66,0,0,1-1.4.86,2.07,2.07,0,0,0-1,1.24" style="fill:#263238"></path><path d="M326.81,106.36a4,4,0,0,1-1.59.44,1.35,1.35,0,0,1-1.32-.82,1.33,1.33,0,0,1,.45-1.35,3.55,3.55,0,0,1,1.35-.66,20.86,20.86,0,0,1,3.13-.71,2.89,2.89,0,0,1,1.31,0,1.05,1.05,0,0,1,.77,1c0,.54-.57.89-1.07,1.12a14.64,14.64,0,0,1-3.93,1.14" style="fill:#455a64"></path><path d="M315.51,143.31A78.81,78.81,0,0,1,313,130a27.46,27.46,0,0,1,2-13.28c.29-.63,2.63-4.79,3.3-4.67.48.08-1.05,4-.84,4.45a23.17,23.17,0,0,1,1.65,13.72,61.08,61.08,0,0,1-3.65,13.11" style="fill:#263238"></path><path d="M324.92,185c-7-.64-12.09-9.79-11.6-16.79l3-42.12c.44-11.35,7.4-20.55,18.73-19.8l1,.13a20.29,20.29,0,0,1,17.75,21c-.43,9.83-1,20.68-1.75,25.89-1.49,10.79-12.51,11.12-12.51,11.12s-.24,2.51-.5,5.7a12.89,12.89,0,0,1-14,11.8Z" style="fill:#b78876"></path><path d="M339.55,164.43A26.29,26.29,0,0,1,326,158.51s2.45,8.29,13.36,8.67Z" style="fill:#995037"></path><path d="M347.74,134.28a1.55,1.55,0,0,1-1.68,1.37,1.49,1.49,0,0,1-1.42-1.59,1.55,1.55,0,0,1,1.68-1.37A1.49,1.49,0,0,1,347.74,134.28Z" style="fill:#263238"></path><path d="M350.94,131.61c-.21.18-1.27-.83-2.94-1s-3,.47-3.13.25.16-.44.74-.76a4.21,4.21,0,0,1,2.54-.45,4.06,4.06,0,0,1,2.31,1.07C350.92,131.15,351.05,131.54,350.94,131.61Z" style="fill:#263238"></path><path d="M331.24,132.87a1.56,1.56,0,0,1-1.69,1.37,1.48,1.48,0,0,1-1.41-1.59,1.55,1.55,0,0,1,1.68-1.37A1.49,1.49,0,0,1,331.24,132.87Z" style="fill:#263238"></path><path d="M334.59,130.25c-.21.18-1.28-.83-2.94-1s-3,.48-3.13.25.16-.44.74-.76a4.29,4.29,0,0,1,2.54-.45,4.16,4.16,0,0,1,2.31,1.08C334.57,129.79,334.7,130.17,334.59,130.25Z" style="fill:#263238"></path><path d="M339,143.76a10.58,10.58,0,0,1,2.76-.15c.43,0,.84,0,1-.31a2.12,2.12,0,0,0-.13-1.29l-.85-3.39c-1.16-4.81-1.95-8.75-1.76-8.79s1.3,3.82,2.47,8.63c.28,1.19.54,2.32.79,3.4a2.45,2.45,0,0,1,0,1.69,1.05,1.05,0,0,1-.77.54,3.61,3.61,0,0,1-.73,0A11.22,11.22,0,0,1,339,143.76Z" style="fill:#263238"></path><path d="M333.92,144.29c.27,0,.05,1.83,1.43,3.3s3.33,1.51,3.31,1.77c0,.11-.47.29-1.28.21a4.53,4.53,0,0,1-2.78-1.37,4,4,0,0,1-1.08-2.75C333.54,144.69,333.8,144.27,333.92,144.29Z" style="fill:#263238"></path><path d="M335.34,123.5c-.22.43-1.85,0-3.83,0s-3.62.33-3.82-.11c-.09-.21.23-.6.92-1a6.65,6.65,0,0,1,5.84.09C335.13,122.89,335.44,123.29,335.34,123.5Z" style="fill:#263238"></path><path d="M351,126c-.34.34-1.44-.2-2.81-.39s-2.57-.06-2.79-.49c-.09-.21.14-.56.69-.85a3.91,3.91,0,0,1,2.36-.34,4,4,0,0,1,2.15,1C351,125.43,351.1,125.84,351,126Z" style="fill:#263238"></path><path d="M316.17,134.17c-.17-.1-7.15-3.13-7.84,4.29s6.9,6.58,6.93,6.37S316.17,134.17,316.17,134.17Z" style="fill:#b78876"></path><path d="M313.26,141.81s-.14.08-.37.16a1.32,1.32,0,0,1-1-.07,3.23,3.23,0,0,1-1.22-3,4.36,4.36,0,0,1,.54-1.82,1.48,1.48,0,0,1,1.06-.9.67.67,0,0,1,.73.43c.08.21,0,.36.06.37s.17-.11.14-.42a.85.85,0,0,0-.25-.49,1,1,0,0,0-.7-.26,1.83,1.83,0,0,0-1.45,1,4.31,4.31,0,0,0-.64,2c-.1,1.49.54,3,1.58,3.37a1.39,1.39,0,0,0,1.2-.08C313.23,142,313.28,141.82,313.26,141.81Z" style="fill:#995037"></path><path d="M350,114.72c1.26-.57-2-4.76-4.86-6.35-4.29-2.39-11-4.21-15.21-3.39-5.07,1-9.4,3.11-12.26,7.41A29.27,29.27,0,0,0,313.18,127a8.85,8.85,0,0,0,.67,4.62c.89,1.73,2.8,2.93,2.52,5.19a3.11,3.11,0,0,0,.58,2.33c1.24,1.56,3,.34,3.89-1,1.88-2.77,2.35-6.22,2.77-9.54a22,22,0,0,0,.13-7.1c-.26-1.27-.75-2.49-.94-3.77a4.46,4.46,0,0,1,.84-3.66,4.53,4.53,0,0,1,.65-.56,7.78,7.78,0,0,1,7.81-.82c4,1.83,11,4.64,13,3.38a11.43,11.43,0,0,0,3.61-3.1Z" style="fill:#263238"></path><path d="M341.22,106.36s.52.38,1.19,1.17a11.45,11.45,0,0,1,2.11,3.47,6.75,6.75,0,0,1,.22,4.07c-.3,1-.77,1.52-.81,1.48s.26-.59.45-1.57a7.35,7.35,0,0,0-.35-3.8,15.23,15.23,0,0,0-1.91-3.43A6,6,0,0,1,341.22,106.36Z" style="fill:#455a64"></path><path d="M346.07,110.34c.06,0,.26.35.38,1a5.83,5.83,0,0,1-.2,2.58,5.65,5.65,0,0,1-1.33,2.23c-.47.47-.84.65-.88.6a12.06,12.06,0,0,0,1.71-3A11.9,11.9,0,0,0,346.07,110.34Z" style="fill:#455a64"></path><path d="M323.49,103.18s-.25-.12-.55-.48a4,4,0,0,1-.16-4.69,4.18,4.18,0,0,1,3.13-1.8,1.26,1.26,0,0,1,1,.37,1.41,1.41,0,0,1,.25,1,14.83,14.83,0,0,1-.23,1.7,14,14,0,0,1-.83,2.78,7.28,7.28,0,0,1-1.33,2.3c-.07-.05.44-.92,1-2.44a16.58,16.58,0,0,0,.7-2.73,16.27,16.27,0,0,0,.19-1.65,1,1,0,0,0-.13-.66.8.8,0,0,0-.64-.19,3.76,3.76,0,0,0-2.76,1.56,3.58,3.58,0,0,0-.66,2.55A5.31,5.31,0,0,0,323.49,103.18Z" style="fill:#455a64"></path><path d="M292.56,165.6c.91-.38,10-3.82,13.3-4.65s8.18-1.46,8.18-1.46,12.52,7.8,15,9.19,10,1.82,10,1.82,0,13.73-.8,18.73a334.36,334.36,0,0,1-9.16,39.7c-5.55,18.61-9.16,24.16-9.16,24.16s.77,8-1.56,13-5.11,10-5.11,10l-3.05,2.22s-10-4.17-19.16,0S259.37,291.13,254.37,290s-2.78-6.11-1.67-10.83,10.83-21.1,10.83-21.1l1.11-5.83,2.14-2.14,8.16-49.88S290.21,166.56,292.56,165.6Z" style="fill:#455a64"></path><path d="M285.94,197.45s4,14.19,13.64,15.75c8.45,1.37,12.73-1,14.77-6.41s3.74-29.36,3.74-29.36.23-8.83-2.48-10.62S285.94,197.45,285.94,197.45Z" style="fill:#b78876"></path><path d="M271,254.38s1,6.65,2.53,8.2c0,0,11.6,13.37,12.16,13.93s2.45,1.54,3.43,1a3,3,0,0,0,1.12-2.1s3,2,4.34,1.26a1.74,1.74,0,0,0,.91-2s2.31,1.19,3.78-.21a4.7,4.7,0,0,0,1.18-3.64s2,1.54,3.15.28a7.3,7.3,0,0,0,1.47-3.56h0l-1.68-3s-4.75-6.58-6.22-8.4-5-3.29-7.56-4.13-8.55-7.51-8.55-7.51Z" style="fill:#b78876"></path><path d="M311.44,164.38a22,22,0,0,0-16.53.25c-8.36,3.43-22.51,9.24-24.54,10-2.91,1.12-33.82,11.2-37.63,23.74,0,0-1.94,3.86,0,6.94,2.79,4.44,11,23.75,24,34.72L271,254.38l10.21-9.66s-12.13-21.93-15.71-30.44-5.48-10.51-5.48-10.51,12.55-2.92,20.61-4.93,18.14-5.15,18.14-5.15,14.11-5.15,16.8-9.19,4.48-13.66,0-17.69A14,14,0,0,0,311.44,164.38Z" style="fill:#b78876"></path><path d="M251.24,182.56s10.49,14.75,11.45,18l.95,3.28a1.76,1.76,0,0,0,2.15.71c1.31-.59,8.35-3.1,8.35-3.1s1.52-5.1-1.8-11.32A128.11,128.11,0,0,0,263.9,177,13.18,13.18,0,0,0,251.24,182.56Z" style="fill:#263238"></path><path d="M248.93,202.12a15.21,15.21,0,0,1,11.74,1.64,41.74,41.74,0,0,0-5.77-1.5A44.3,44.3,0,0,0,248.93,202.12Z" style="fill:#995037"></path><path d="M301.43,196.34a10.22,10.22,0,0,0-2.29-.87,8.66,8.66,0,0,0-2.64-.09,27.39,27.39,0,0,0-3.23.58c-2.31.52-4.4.95-5.92,1.24a11.69,11.69,0,0,1-2.48.36,12.37,12.37,0,0,1,2.41-.72c1.49-.38,3.57-.87,5.87-1.38a22.24,22.24,0,0,1,3.31-.56,8.54,8.54,0,0,1,2.76.21A3.87,3.87,0,0,1,301.43,196.34Z" style="fill:#995037"></path><path d="M311.26,168.13a9.31,9.31,0,0,1,1.18,2.15,11.78,11.78,0,0,1,1.23,5.81,11.63,11.63,0,0,1-.83,3.2,13.75,13.75,0,0,1-1.19,2.4c-.83,1.31-1.69,1.82-1.72,1.76a16.21,16.21,0,0,0,1.41-1.95,16.6,16.6,0,0,0,1.05-2.38,12.11,12.11,0,0,0,.76-3.07,12.86,12.86,0,0,0-1-5.63A15.06,15.06,0,0,1,311.26,168.13Z" style="fill:#995037"></path><path d="M245.5,189l6.93,10.87a1.3,1.3,0,0,0,1.65.47l24.49-11.93a1.29,1.29,0,0,0,.53-1.85l-6.94-10.87a1.27,1.27,0,0,0-1.64-.46L246,187.16A1.29,1.29,0,0,0,245.5,189Z" style="fill:#263238"></path><polygon points="254.06 197.88 248.26 188.7 270.53 177.25 276.6 186.77 254.06 197.88" style="fill:#455a64"></polygon><path d="M268.54,180a15.2,15.2,0,0,1-1.72,2.15c-1.21,1.43-2.66,3.15-4.28,5.05l-4.19,5.12a16.16,16.16,0,0,1-1.81,2.08,14.1,14.1,0,0,1,1.51-2.31c1-1.37,2.43-3.23,4.09-5.22s3.24-3.74,4.41-5A13.07,13.07,0,0,1,268.54,180Z" style="fill:#fff"></path><path d="M261.24,184.19c.12.08-.38,1-1.11,2s-1.42,1.79-1.54,1.7.38-1,1.11-2S261.13,184.1,261.24,184.19Z" style="fill:#fff"></path><path d="M321.16,436.78l-.57,1.41s19.84,19.41,18.22,24l-47.15-19.81,8.94-14.67C306.25,433.93,311.72,436.63,321.16,436.78Z" style="fill:#263238"></path><path d="M291.66,442.41l2.15-3.52L338,459s1.72,1.8.86,3.18Z" style="fill:#e0e0e0"></path><path d="M320.7,438.39c-.11.22-1.3-.16-2.75.11s-2.45,1-2.62.8.73-1.37,2.48-1.66S320.84,438.2,320.7,438.39Z" style="fill:#e0e0e0"></path><path d="M324.78,442.51c0,.25-1.2.22-2.39.86s-1.85,1.58-2.07,1.48.17-1.47,1.67-2.25S324.87,442.29,324.78,442.51Z" style="fill:#e0e0e0"></path><path d="M325.11,449.61c-.23,0-.07-1.32,1.05-2.34s2.41-1.06,2.43-.83-.94.63-1.84,1.48S325.34,449.68,325.11,449.61Z" style="fill:#e0e0e0"></path><path d="M321,438.39a1.28,1.28,0,0,0,.16-.3,6,6,0,0,0,.32-.91,7.38,7.38,0,0,0,.05-3.56,7.48,7.48,0,0,0-.36-1.14,4,4,0,0,0-.66-1.16,1.71,1.71,0,0,0-.59-.45,1.06,1.06,0,0,0-.82,0,1.56,1.56,0,0,0-.82,1.35,7.81,7.81,0,0,0,.5,3.14,5.55,5.55,0,0,0,2,2.77,3.17,3.17,0,0,0,1.72.49,7.49,7.49,0,0,0,1.67-.19,10.71,10.71,0,0,0,3-1,1.72,1.72,0,0,0,.86-1.31,1.14,1.14,0,0,0-.22-.78,1.27,1.27,0,0,0-.65-.43,2.12,2.12,0,0,0-1.35.09,11.39,11.39,0,0,0-1.1.46,12.17,12.17,0,0,0-3,2,9,9,0,0,0-.69.68c-.14.17-.21.26-.2.27s.35-.3,1-.82a13.9,13.9,0,0,1,3-1.82,3.69,3.69,0,0,1,2.21-.49.78.78,0,0,1,.58.83,1.32,1.32,0,0,1-.68,1,10.61,10.61,0,0,1-2.85.95,4,4,0,0,1-3.06-.24,5.2,5.2,0,0,1-1.82-2.55,7.46,7.46,0,0,1-.49-2.93,1.16,1.16,0,0,1,.55-1,.88.88,0,0,1,1,.37,3.46,3.46,0,0,1,.61,1,7,7,0,0,1,.38,1.08,7.83,7.83,0,0,1,.09,3.45C321.18,438,321,438.37,321,438.39Z" style="fill:#e0e0e0"></path><path d="M302.53,435.92c-.1.12,1.73,1.69,3.7,3.86.5.54.9,1.09,1.33,1.6a3,3,0,0,0,1.45,1,1.67,1.67,0,0,0,1.21-.09c.26-.15.34-.3.32-.31a1.83,1.83,0,0,1-1.43.09,2.83,2.83,0,0,1-1.23-1c-.38-.49-.81-1.08-1.31-1.63a25.36,25.36,0,0,0-2.75-2.63A5.61,5.61,0,0,0,302.53,435.92Z" style="fill:#e0e0e0"></path><path d="M205.81,446.9l-.91,1.22s14.27,23.8,11.54,27.86l-40.6-31.11,10.91-13.09C190.64,439.2,196.72,444.36,205.81,446.9Z" style="fill:#263238"></path><path d="M175.84,444.87l2.63-3.15,37.94,31s1.21,2.17,0,3.29Z" style="fill:#e0e0e0"></path><path d="M205,448.34c-.15.19-1.21-.48-2.68-.59s-2.62.33-2.74.11,1.05-1.14,2.82-1S205.14,448.19,205,448.34Z" style="fill:#e0e0e0"></path><path d="M207.86,453.36c-.1.23-1.22-.09-2.53.23s-2.19,1.06-2.38.9.54-1.38,2.18-1.75S208,453.17,207.86,453.36Z" style="fill:#e0e0e0"></path><path d="M206.37,460.31c-.21-.09.28-1.3,1.62-2s2.6-.42,2.55-.19-1.06.37-2.15,1S206.59,460.44,206.37,460.31Z" style="fill:#e0e0e0"></path><path d="M205.27,448.42s.09-.07.24-.24a5.86,5.86,0,0,0,.54-.81,7.49,7.49,0,0,0,.95-3.43,9.78,9.78,0,0,0-.06-1.19,3.89,3.89,0,0,0-.35-1.28,1.58,1.58,0,0,0-.45-.59,1.06,1.06,0,0,0-.79-.24,1.52,1.52,0,0,0-1.13,1.1,7.76,7.76,0,0,0-.32,3.16,5.56,5.56,0,0,0,1.22,3.19,3.33,3.33,0,0,0,1.54.91,7.45,7.45,0,0,0,1.66.23,10.71,10.71,0,0,0,3.16-.24,1.73,1.73,0,0,0,1.16-1.06,1.13,1.13,0,0,0,0-.81,1.26,1.26,0,0,0-.51-.58,2.18,2.18,0,0,0-1.34-.25,10.46,10.46,0,0,0-1.18.17,12,12,0,0,0-3.36,1.16,9.1,9.1,0,0,0-.84.48c-.18.13-.27.2-.26.21a12.53,12.53,0,0,0,1.18-.53,13.27,13.27,0,0,1,3.34-1,3.63,3.63,0,0,1,2.26.09.77.77,0,0,1,.35.94,1.33,1.33,0,0,1-.91.79,10.83,10.83,0,0,1-3,.2,4.06,4.06,0,0,1-2.9-1,5.19,5.19,0,0,1-1.11-2.93,7.41,7.41,0,0,1,.27-3c.15-.42.43-.81.79-.85a.9.9,0,0,1,.86.6,3.78,3.78,0,0,1,.33,1.16,7.46,7.46,0,0,1,.08,1.14,7.6,7.6,0,0,1-.78,3.35C205.53,448,205.24,448.4,205.27,448.42Z" style="fill:#e0e0e0"></path><path d="M188,441.35c-.14.09,1.24,2.07,2.6,4.67.34.65.59,1.29.88,1.88a3,3,0,0,0,1.14,1.37,1.63,1.63,0,0,0,1.19.21c.29-.07.4-.2.39-.22a1.8,1.8,0,0,1-1.41-.26,3.05,3.05,0,0,1-.94-1.28c-.24-.57-.5-1.25-.85-1.91a24.13,24.13,0,0,0-2-3.24A5.6,5.6,0,0,0,188,441.35Z" style="fill:#e0e0e0"></path></g></svg>